<svg width="34" height="33" viewBox="0 0 34 33" fill="none" xmlns="http://www.w3.org/2000/svg">
<path d="M0.53334 0.15657C0.0808097 0.385996 -0.0837467 0.749252 0.0396707 1.24634C0.163088 1.74343 0.327645 2.29787 0.53334 2.90968C0.697897 3.445 0.821314 3.98033 0.903592 4.51565C0.985871 5.08922 1.19157 5.50983 1.52068 5.77749C1.84979 6.08339 2.34346 6.31282 3.00169 6.46577C3.70105 6.61872 4.29757 6.84815 4.79124 7.15405C5.44946 7.49819 6.00484 7.78497 6.45737 8.01439C6.95104 8.28206 7.42414 8.56884 7.87667 8.87474C8.45262 8.72179 8.90515 8.77914 9.23426 9.04681C9.60451 9.35271 10.0159 9.62037 10.4684 9.8498C11.1267 10.2704 11.826 10.6145 12.5665 10.8822C13.3482 11.1499 14.1504 11.3984 14.9732 11.6278C15.7959 11.8955 16.6187 12.1441 17.4415 12.3735C18.2643 12.6411 19.0871 12.947 19.9099 13.2912C20.7326 13.6353 21.4937 14.0177 22.1931 14.4383C22.8924 14.8972 23.5918 15.2604 24.2912 15.5281C24.538 15.6428 24.8054 15.7001 25.0934 15.7001C25.3814 15.7384 25.6488 15.7766 25.8956 15.8149C26.1424 15.8531 26.3687 15.9105 26.5744 15.9869C26.8212 16.1016 27.0475 16.2928 27.2532 16.5605C27.1298 16.7899 26.9446 16.962 26.6978 17.0767C26.451 17.1914 26.1836 17.287 25.8956 17.3635C25.6488 17.44 25.3814 17.4973 25.0934 17.5355C24.8054 17.612 24.5586 17.7076 24.3529 17.8223C24.2295 17.8988 24.1061 17.9944 23.9826 18.1091C23.9004 18.2621 23.7975 18.3768 23.6741 18.4533C23.0159 18.8356 22.3165 19.1415 21.576 19.371C20.8355 19.6004 20.0744 19.8298 19.2928 20.0592C19.1282 20.2887 19.0665 20.5946 19.1076 20.9769C19.1899 21.3593 19.1282 21.6843 18.9225 21.952C18.6757 22.2961 18.2026 22.4491 17.5032 22.4108C16.845 22.3726 16.2485 22.43 15.7137 22.5829C14.8086 22.8123 13.9858 23.233 13.2453 23.8448C12.5048 24.4566 11.7232 24.9919 10.9004 25.4507C10.0776 25.8713 9.25483 26.2537 8.43205 26.5979C7.65041 26.942 7.07446 27.42 6.70421 28.0318C6.99218 28.873 7.23902 29.6951 7.44471 30.4981C7.69155 31.3393 8.12351 31.9511 8.74059 32.3335C9.31654 32.3335 9.76907 32.1232 10.0982 31.7026C10.4684 31.282 10.8798 30.9187 11.3324 30.6128C11.5381 30.4599 11.7643 30.3451 12.0112 30.2687C12.258 30.2304 12.4843 30.1348 12.6899 29.9819C12.8956 29.8289 13.0602 29.6569 13.1836 29.4657C13.3482 29.2745 13.5333 29.1215 13.739 29.0068C14.1915 28.7009 14.7675 28.4333 15.4668 28.2038C16.2073 28.0126 16.9273 27.8215 17.6266 27.6303C18.2026 27.4773 18.6757 27.2097 19.0459 26.8273C19.4573 26.4831 19.9099 26.1581 20.4035 25.8522C20.6092 25.7375 20.8149 25.661 21.0206 25.6228C21.2675 25.5846 21.4731 25.5272 21.6377 25.4507C21.9668 25.2595 22.2754 25.0492 22.5633 24.8198C22.8924 24.6286 23.2216 24.4374 23.5507 24.2462C23.8798 24.0168 24.1883 23.7874 24.4763 23.558C24.7643 23.3668 25.0728 23.1756 25.4019 22.9844C25.731 22.7932 26.0396 22.6594 26.3276 22.5829C26.6155 22.5064 26.8829 22.3726 27.1298 22.1814C27.3766 21.9902 27.6029 21.7799 27.8086 21.5505C28.0143 21.3593 28.2405 21.2064 28.4874 21.0916C28.7342 20.9769 28.981 20.9005 29.2279 20.8622C29.5158 20.824 29.7627 20.7666 29.9684 20.6901C30.2152 20.5754 30.4003 20.4034 30.5238 20.1739C30.6883 19.9828 30.894 19.7916 31.1408 19.6004C31.3465 19.5239 31.5522 19.4665 31.7579 19.4283C31.9636 19.3901 32.1487 19.3136 32.3133 19.1989C32.7247 18.893 33.1155 18.4533 33.4858 17.8797C33.8972 17.3444 34.0617 16.8473 33.9794 16.3884C33.8972 16.0825 33.6709 15.6428 33.3006 15.0692C32.9304 14.5339 32.6218 14.1515 32.375 13.9221C32.087 13.6927 31.7168 13.5015 31.2643 13.3485C30.8529 13.1956 30.4209 13.0426 29.9684 12.8897C29.5158 12.775 29.0427 12.6603 28.5491 12.5455C28.0965 12.4308 27.6852 12.297 27.3149 12.1441C26.5333 11.7999 25.7516 11.3793 24.97 10.8822C24.2295 10.3851 23.4273 9.96451 22.5633 9.62037C21.4114 9.08504 20.2801 8.68355 19.1694 8.41589C18.0997 8.14822 17.0918 7.80409 16.1456 7.38347C15.8988 7.34523 15.7137 7.34523 15.5903 7.38347C15.4668 7.45995 15.2611 7.47907 14.9732 7.44083C14.4384 7.40259 14.0681 7.17317 13.8624 6.75255C13.6979 6.33194 13.4099 5.96868 12.9985 5.66278C12.7928 5.50983 12.4637 5.376 12.0112 5.26129C11.5586 5.18481 11.1267 5.0701 10.7153 4.91715C9.97477 4.64949 9.17255 4.24799 8.30863 3.71266C7.48585 3.21558 6.66307 2.77584 5.84028 2.39347C5.51117 2.20228 5.16149 2.04933 4.79124 1.93462C4.42099 1.8199 4.0713 1.68607 3.74219 1.53312C3.16624 1.26546 2.652 0.997797 2.19947 0.730133C1.78808 0.462471 1.2327 0.271282 0.53334 0.15657Z" fill="#F27F3D"/>
</svg>
