<svg width="432" height="392" viewBox="0 0 432 392" fill="none" xmlns="http://www.w3.org/2000/svg">
<path d="M154.069 0.977492C124.2 5.19624 96.6093 16.5868 73.0687 34.2212C61.8468 42.6587 53.7468 50.5056 39.9093 66.1993L27.7593 80.0368L29.7843 82.6524C49.7812 109.399 75.178 145.09 74.5874 145.68C72.5624 147.621 55.2656 159.855 54.8437 159.602C54.5906 159.434 45.3093 146.777 34.1718 131.505C23.0343 116.234 13.7531 103.831 13.5844 103.999C13.4156 104.168 10.2937 120.452 6.66562 140.28L0 176.309L12.6562 211.662C19.6594 231.152 25.3125 247.69 25.3125 248.533C25.3125 249.293 23.0343 256.633 20.3344 264.818L15.3562 279.668L60.6656 309.874L105.891 339.996L128.84 335.524L151.79 330.968L213.637 347.336L275.484 363.79L289.406 377.458L303.412 391.211H335.559H367.706L383.906 369.611L400.106 348.011L399.684 316.202C399.262 282.283 399.009 279.415 394.537 268.108C389.053 254.44 377.915 240.771 365.85 233.008C361.209 230.055 344.165 221.365 343.912 221.787C343.743 221.955 341.465 230.983 338.681 241.868L333.703 261.696L297.843 261.612L261.984 261.443L235.237 246.846L208.406 232.165V217.315V202.465L213.3 200.693C215.915 199.68 247.472 188.459 283.415 175.718C319.359 162.893 348.89 152.346 349.059 152.093C349.228 151.924 348.046 144.584 346.443 135.809C344.756 127.034 343.406 119.609 343.406 119.271C343.406 118.934 342.9 118.68 342.225 118.68C341.634 118.68 318.262 126.527 290.334 136.062L239.54 153.359L194.737 137.749C170.1 129.143 149.765 122.224 149.597 122.309C149.512 122.477 153.225 131.505 157.865 142.39L166.303 162.134L148.584 194.112C138.797 211.662 130.781 226.174 130.781 226.343C130.781 226.512 141.919 226.765 155.503 226.849L180.14 227.102L180.394 239.505L180.647 251.993H134.156H87.6655L89.0999 249.208C89.9436 247.774 101.166 227.355 114.159 203.899C127.153 180.443 137.784 160.868 137.784 160.446C137.784 159.94 130.106 141.63 120.656 119.693C111.29 97.7555 103.697 79.6993 103.866 79.5305C104.034 79.3618 134.409 89.8243 171.281 102.734C208.153 115.643 238.865 126.274 239.54 126.274C240.215 126.274 283.753 111.593 336.403 93.6211L432 60.968V48.4806C432 41.6462 431.746 35.9931 431.409 35.9931C431.156 35.9931 397.49 33.8837 356.653 31.3525L282.403 26.7118L257.006 17.4306C215.156 2.32749 207.394 0.555617 180.14 0.0493679C167.906 -0.119382 159.89 0.133743 154.069 0.977492Z" fill="#F8843B"/>
</svg>
