<svg width="34" height="33" viewBox="0 0 34 33" fill="none" xmlns="http://www.w3.org/2000/svg">
<path d="M34 0.517651C33.7576 0.0784309 33.3737 -0.081286 32.8485 0.0385012C32.3232 0.158288 31.7374 0.318005 31.0909 0.517651C30.5253 0.677367 29.9596 0.797155 29.3939 0.877013C28.7879 0.956871 28.3434 1.15652 28.0606 1.47595C27.7374 1.79538 27.4949 2.27453 27.3333 2.9134C27.1717 3.59219 26.9293 4.17117 26.6061 4.65032C26.2424 5.28918 25.9394 5.82823 25.697 6.26745C25.4141 6.74659 25.1111 7.20578 24.7879 7.645C24.9495 8.20401 24.8889 8.64323 24.6061 8.96266C24.2828 9.32202 24 9.72132 23.7576 10.1605C23.3131 10.7994 22.9495 11.4782 22.6667 12.1969C22.3838 12.9556 22.1212 13.7342 21.8788 14.5328C21.596 15.3314 21.3333 16.1299 21.0909 16.9285C20.8081 17.7271 20.4848 18.5257 20.1212 19.3243C19.7576 20.1229 19.3535 20.8615 18.9091 21.5403C18.4242 22.2191 18.0404 22.8979 17.7576 23.5767C17.6364 23.8163 17.5758 24.0758 17.5758 24.3553C17.5354 24.6348 17.495 24.8944 17.4545 25.134C17.4141 25.3735 17.3535 25.5931 17.2727 25.7928C17.1515 26.0324 16.9495 26.252 16.6667 26.4516C16.4242 26.3318 16.2424 26.1522 16.1212 25.9126C16 25.673 15.899 25.4135 15.8182 25.134C15.7374 24.8944 15.6768 24.6348 15.6364 24.3553C15.5556 24.0758 15.4545 23.8363 15.3333 23.6366C15.2525 23.5168 15.1515 23.397 15.0303 23.2773C14.8687 23.1974 14.7475 23.0976 14.6667 22.9778C14.2626 22.3389 13.9394 21.6601 13.697 20.9414C13.4545 20.2227 13.2121 19.484 12.9697 18.7253C12.7273 18.5656 12.404 18.5057 12 18.5457C11.596 18.6255 11.2525 18.5656 10.9697 18.366C10.6061 18.1264 10.4444 17.6672 10.4848 16.9884C10.5253 16.3496 10.4646 15.7706 10.303 15.2515C10.0606 14.3731 9.61616 13.5745 8.9697 12.8558C8.32323 12.137 7.75758 11.3784 7.27273 10.5798C6.82828 9.78121 6.42424 8.98263 6.06061 8.18404C5.69697 7.42539 5.19192 6.86638 4.54546 6.50702C3.65657 6.78652 2.78788 7.0261 1.93939 7.22574C1.05051 7.46532 0.404041 7.88458 8.48855e-07 8.48351C8.42189e-07 9.04252 0.222223 9.48174 0.666668 9.80117C1.11111 10.1605 1.49495 10.5598 1.81818 10.999C1.9798 11.1987 2.10101 11.4183 2.18182 11.6579C2.22222 11.8975 2.32323 12.1171 2.48485 12.3167C2.64647 12.5164 2.82828 12.6761 3.0303 12.7959C3.23232 12.9556 3.39394 13.1353 3.51515 13.3349C3.83838 13.7741 4.12121 14.3331 4.36364 15.0119C4.56566 15.7306 4.76768 16.4294 4.9697 17.1082C5.13131 17.6672 5.41414 18.1264 5.81818 18.4858C6.18182 18.8851 6.52525 19.3243 6.84849 19.8034C6.9697 20.0031 7.05051 20.2027 7.09091 20.4024C7.13131 20.6419 7.19192 20.8416 7.27273 21.0013C7.47475 21.3207 7.69697 21.6202 7.93939 21.8997C8.14141 22.2191 8.34344 22.5386 8.54546 22.858C8.78788 23.1774 9.0303 23.4769 9.27273 23.7564C9.47475 24.0359 9.67677 24.3354 9.87879 24.6548C10.0808 24.9742 10.2222 25.2737 10.303 25.5532C10.3838 25.8327 10.5253 26.0923 10.7273 26.3318C10.9293 26.5714 11.1515 26.791 11.3939 26.9907C11.596 27.1903 11.7576 27.4099 11.8788 27.6495C12 27.8891 12.0808 28.1286 12.1212 28.3682C12.1616 28.6477 12.2222 28.8873 12.303 29.0869C12.4242 29.3265 12.6061 29.5062 12.8485 29.626C13.0505 29.7857 13.2525 29.9853 13.4545 30.2249C13.5354 30.4246 13.596 30.6242 13.6364 30.8239C13.6768 31.0235 13.7576 31.2032 13.8788 31.3629C14.202 31.7622 14.6667 32.1415 15.2727 32.5009C15.8384 32.9002 16.3636 33.0599 16.8485 32.98C17.1717 32.9002 17.6364 32.6806 18.2424 32.3212C18.8081 31.9618 19.2121 31.6624 19.4545 31.4228C19.697 31.1433 19.899 30.7839 20.0606 30.3447C20.2222 29.9454 20.3838 29.5262 20.5455 29.0869C20.6667 28.6477 20.7879 28.1885 20.9091 27.7094C21.0303 27.2702 21.1717 26.8709 21.3333 26.5115C21.697 25.7529 22.1414 24.9942 22.6667 24.2356C23.1919 23.5168 23.6364 22.7382 24 21.8997C24.5657 20.7817 24.9899 19.6836 25.2727 18.6055C25.5556 17.5674 25.9192 16.5891 26.3636 15.6708C26.404 15.4312 26.404 15.2515 26.3636 15.1317C26.2828 15.0119 26.2626 14.8123 26.303 14.5328C26.3434 14.0137 26.5859 13.6543 27.0303 13.4547C27.4747 13.295 27.8586 13.0155 28.1818 12.6162C28.3434 12.4165 28.4848 12.0971 28.6061 11.6579C28.6869 11.2187 28.8081 10.7994 28.9697 10.4001C29.2525 9.68139 29.6768 8.90277 30.2424 8.06426C30.7677 7.26567 31.2323 6.46709 31.6364 5.66851C31.8384 5.34908 32 5.00968 32.1212 4.65032C32.2424 4.29095 32.3838 3.95156 32.5455 3.63212C32.8283 3.07312 33.1111 2.574 33.3939 2.13478C33.6768 1.73549 33.8788 1.19645 34 0.517651Z" fill="#8C8635"/>
</svg>
