<svg width="643" height="583" viewBox="0 0 643 583" fill="none" xmlns="http://www.w3.org/2000/svg">
<path d="M229.32 1.45407C184.863 7.73337 143.796 24.6875 108.757 50.9349C92.0545 63.4935 79.9982 75.173 59.4022 98.532L41.3178 119.128L44.3318 123.021C74.0957 162.832 111.897 215.955 111.018 216.834C108.004 219.722 82.2588 237.932 81.6309 237.556C81.2541 237.304 67.4397 218.467 50.8623 195.736C34.285 173.004 20.4705 154.543 20.2193 154.795C19.9682 155.046 15.3215 179.284 9.92129 208.796L0 262.422L18.8379 315.042C29.2615 344.053 37.6758 368.667 37.6758 369.923C37.6758 371.054 34.285 381.979 30.2662 394.161L22.8566 416.264L90.2963 461.224L157.61 506.058L191.77 499.402L225.929 492.621L317.984 516.984L410.038 541.474L430.76 561.819L451.607 582.289H499.455H547.304L571.416 550.139L595.529 517.989L594.901 470.643C594.273 420.158 593.896 415.888 587.24 399.059C579.077 378.714 562.499 358.369 544.541 346.815C537.633 342.42 512.265 329.485 511.888 330.112C511.637 330.364 508.246 343.801 504.102 360.002L496.692 389.515L443.318 389.389L389.944 389.138L350.134 367.412L310.197 345.56V323.456V301.353L317.481 298.716C321.374 297.209 368.344 280.506 421.843 261.543C475.343 242.453 519.298 226.755 519.549 226.378C519.8 226.127 518.042 215.201 515.656 202.14C513.144 189.079 511.135 178.028 511.135 177.526C511.135 177.023 510.381 176.646 509.377 176.646C508.497 176.646 473.71 188.326 432.141 202.517L356.538 228.262L289.852 205.029C253.181 192.219 222.915 181.921 222.664 182.047C222.538 182.298 228.064 195.736 234.971 211.936L247.53 241.323L221.157 288.92C206.589 315.042 194.658 336.643 194.658 336.894C194.658 337.145 211.236 337.522 231.455 337.648L268.126 338.024L268.503 356.486L268.88 375.072H199.682H130.484L132.619 370.928C133.875 368.793 150.578 338.401 169.918 303.488C189.258 268.575 205.082 239.439 205.082 238.812C205.082 238.058 193.654 210.806 179.588 178.153C165.648 145.501 154.345 118.626 154.596 118.375C154.847 118.123 200.058 133.696 254.939 152.911C309.821 172.125 355.534 187.949 356.538 187.949C357.543 187.949 422.346 166.097 500.711 139.347L643 90.7457V72.159C643 61.9865 642.623 53.5722 642.121 53.5722C641.744 53.5722 591.635 50.4326 530.852 46.665L420.336 39.7578L382.535 25.9433C320.244 3.46345 308.69 0.826144 268.126 0.0726286C249.916 -0.178543 237.985 0.198215 229.32 1.45407Z" fill="black"/>
</svg>
