<svg width="300" height="300" viewBox="0 0 300 300" fill="none" xmlns="http://www.w3.org/2000/svg">
<path d="M136.07 0.469532C82.522 5.81044 34.7801 40.321 12.6686 89.5043C7.33138 101.36 3.40176 115.152 1.05572 129.825C-0.351906 138.629 -0.351906 161.166 1.05572 170.205C6.33431 204.657 21.0557 233.474 45.5132 257.244C57.7126 269.041 69.6774 277.493 84.4575 284.77C99.2962 292.048 114.194 296.626 130.205 298.974C138.944 300.206 160.352 300.382 168.622 299.208C207.977 293.809 242.933 274.089 267.155 243.686C276.07 232.476 285.396 215.984 290.264 202.779C292.669 196.323 292.903 193.447 291.202 190.688C289.384 187.695 286.745 186.345 283.226 186.638C280.587 186.815 279.531 187.343 275.015 190.688C268.328 195.618 266.1 196.968 259.12 200.49C231.554 214.282 199.883 215.339 171.202 203.424C147.214 193.447 126.745 173.902 115.836 150.543C98.1818 112.57 104.457 68.7276 132.199 36.3886C137.185 30.5782 145.337 23.3592 152.258 18.6052C157.83 14.7902 159.062 13.3229 159.531 9.97753C159.941 6.86689 158.768 4.0497 156.129 1.93682C153.9 0.176075 153.666 0.117384 147.625 1.08539e-06C144.164 1.08539e-06 139.003 0.176075 136.07 0.469532Z" fill="#F8843B"/>
<path d="M199.003 18.6643C196.364 20.0142 194.428 23.4183 194.428 26.6463C194.428 30.2852 192.786 36.213 190.851 39.5584C186.335 47.4817 176.892 53.2335 168.505 53.2335C163.578 53.2335 159.238 57.4005 159.238 62.0372C159.238 66.6151 163.578 70.8409 168.27 70.8409C180.176 70.8409 191.203 79.938 193.783 91.8524C194.135 93.5544 194.428 95.9021 194.428 97.0172C194.428 101.713 198.651 106.056 203.226 106.056C207.801 106.056 212.024 101.713 212.024 97.0172C212.024 85.1615 221.173 74.0689 233.021 71.4865C234.722 71.1343 237.068 70.8409 238.182 70.8409C242.874 70.8409 247.214 66.6151 247.214 62.0372C247.214 57.4005 242.874 53.2335 237.947 53.2335C232.082 53.2335 225.044 50.1815 220.294 45.4862C215.308 40.6148 212.082 33.2197 212.024 26.6463C212.024 19.7207 205.044 15.4362 199.003 18.6643Z" fill="#F8843B"/>
<path d="M269.384 18.6637C266.862 19.9549 264.809 23.4177 264.809 26.2349C264.809 27.2326 265.337 29.1107 265.982 30.3433C267.331 32.9844 270.674 35.0386 273.607 35.0386C274.604 35.0386 276.481 34.5104 277.713 33.8647C280.352 32.5148 282.405 29.1694 282.405 26.2349C282.405 23.3003 280.352 19.9549 277.713 18.605C274.839 17.1377 272.199 17.1377 269.384 18.6637Z" fill="#F8843B"/>
<path d="M286.98 89.6808C284.458 90.972 282.405 94.4348 282.405 97.252C282.405 100.187 284.458 103.532 287.097 104.882C288.329 105.527 290.205 106.056 291.202 106.056C294.135 106.056 297.478 104.001 298.827 101.36C299.472 100.128 300 98.2497 300 97.252C300 94.3174 297.947 90.972 295.308 89.6221C292.434 88.1548 289.795 88.1548 286.98 89.6808Z" fill="#F8843B"/>
</svg>
