<svg width="223" height="223" viewBox="0 0 223 223" fill="none" xmlns="http://www.w3.org/2000/svg">

<style>
    #faixa {
        animation: rodar 40s linear infinite;
        transform-origin: center;
    }
    @keyframes rodar {
        0% {
            transform: rotate(0deg);
        }
        100% {
            transform: rotate(360deg);
        }
    }
</style>


<g id="Selo">
<path id="Elipse" d="M223 111.5C223 173.08 173.08 223 111.5 223C49.9203 223 0 173.08 0 111.5C0 49.9203 49.9203 0 111.5 0C173.08 0 223 49.9203 223 111.5Z" fill="#8C8635"/>
<path id="Elipse (Stroke)" fill-rule="evenodd" clip-rule="evenodd" d="M111.5 200.7C160.764 200.7 200.7 160.764 200.7 111.5C200.7 62.2362 160.764 22.3 111.5 22.3C62.2362 22.3 22.3 62.2362 22.3 111.5C22.3 160.764 62.2362 200.7 111.5 200.7ZM111.5 223C173.08 223 223 173.08 223 111.5C223 49.9202 173.08 0 111.5 0C49.9202 0 0 49.9202 0 111.5C0 173.08 49.9202 223 111.5 223Z" fill="#686100"/>
<g id="faixa">
<path id="S" d="M105.408 213.159C105.423 213.428 105.533 213.642 105.738 213.801C105.94 213.961 106.21 214.049 106.546 214.066C106.783 214.077 106.987 214.052 107.16 213.989C107.333 213.926 107.467 213.836 107.563 213.718C107.659 213.6 107.712 213.463 107.722 213.306C107.728 213.175 107.704 213.06 107.65 212.962C107.594 212.863 107.515 212.777 107.415 212.705C107.314 212.634 107.201 212.573 107.077 212.522C106.953 212.471 106.827 212.427 106.7 212.39L106.121 212.214C105.887 212.147 105.663 212.061 105.45 211.956C105.234 211.852 105.043 211.723 104.877 211.572C104.709 211.421 104.579 211.241 104.487 211.034C104.395 210.827 104.356 210.588 104.369 210.317C104.388 209.95 104.498 209.631 104.699 209.361C104.901 209.094 105.183 208.89 105.545 208.751C105.906 208.613 106.337 208.557 106.839 208.582C107.326 208.607 107.745 208.703 108.097 208.872C108.446 209.041 108.714 209.275 108.902 209.575C109.087 209.874 109.178 210.232 109.173 210.649L108.057 210.593C108.051 210.374 107.993 210.189 107.882 210.039C107.771 209.888 107.622 209.772 107.436 209.691C107.248 209.61 107.036 209.564 106.799 209.552C106.553 209.54 106.335 209.566 106.145 209.63C105.954 209.696 105.802 209.793 105.689 209.92C105.577 210.049 105.515 210.204 105.504 210.383C105.498 210.546 105.539 210.683 105.627 210.794C105.716 210.907 105.843 211.003 106.008 211.083C106.172 211.164 106.364 211.24 106.586 211.308L107.289 211.527C107.799 211.685 108.196 211.907 108.483 212.191C108.767 212.477 108.898 212.844 108.875 213.293C108.857 213.662 108.741 213.98 108.527 214.247C108.311 214.515 108.026 214.716 107.672 214.852C107.318 214.989 106.921 215.047 106.483 215.025C106.038 215.003 105.653 214.906 105.326 214.734C104.997 214.565 104.744 214.338 104.566 214.056C104.388 213.775 104.304 213.458 104.316 213.105L105.408 213.159Z" fill="#F2F2F2"/>
<path id="a" d="M99.0309 207.993L100.23 208.172L97.1194 214.049L95.7321 213.841L94.4724 207.311L95.6719 207.49L96.5917 212.669L96.6401 212.676L99.0309 207.993ZM98.628 210.419L95.3568 209.93L95.4917 209.027L98.7629 209.516L98.628 210.419Z" fill="#F2F2F2"/>
<path id="t" d="M88.9907 211.619L88.758 212.543L83.9054 211.32L84.1381 210.397L86.018 210.87L87.3176 205.712L88.4104 205.987L87.1108 211.146L88.9907 211.619Z" fill="#F2F2F2"/>
<path id="i" d="M78.0226 209.468L80.0373 203.528L81.1133 203.893L79.0986 209.833L78.0226 209.468Z" fill="#F2F2F2"/>
<path id="s" d="M70.1825 204.544C70.1028 204.801 70.1309 205.04 70.2668 205.261C70.4009 205.481 70.6226 205.658 70.9319 205.791C71.1494 205.885 71.3501 205.932 71.534 205.934C71.7179 205.935 71.8754 205.898 72.0064 205.821C72.1374 205.744 72.235 205.634 72.2991 205.49C72.3508 205.37 72.3685 205.254 72.3522 205.143C72.3339 205.03 72.2904 204.923 72.2214 204.82C72.1517 204.718 72.0676 204.622 71.9692 204.531C71.8707 204.439 71.7685 204.354 71.6625 204.275L71.1808 203.907C70.9852 203.763 70.8057 203.604 70.6423 203.431C70.477 203.258 70.343 203.071 70.2402 202.871C70.1356 202.67 70.0765 202.457 70.0628 202.231C70.0491 202.005 70.096 201.767 70.2036 201.518C70.3491 201.18 70.5635 200.92 70.8468 200.738C71.1292 200.557 71.4647 200.465 71.8532 200.462C72.2389 200.459 72.6624 200.557 73.1236 200.756C73.5717 200.949 73.9308 201.187 74.2009 201.468C74.4691 201.748 74.6386 202.061 74.7094 202.407C74.7783 202.753 74.7378 203.12 74.5878 203.509L73.5614 203.066C73.6329 202.859 73.643 202.666 73.5917 202.486C73.5404 202.306 73.4417 202.145 73.2956 202.004C73.1477 201.863 72.965 201.745 72.7476 201.651C72.5207 201.553 72.3074 201.501 72.1077 201.495C71.9053 201.49 71.7291 201.528 71.5791 201.607C71.4282 201.689 71.3163 201.812 71.2432 201.976C71.1804 202.127 71.1711 202.27 71.2153 202.404C71.2587 202.541 71.344 202.676 71.4713 202.808C71.5959 202.942 71.75 203.08 71.9336 203.221L72.516 203.673C72.9378 203.999 73.2331 204.345 73.4019 204.712C73.5681 205.079 73.5622 205.469 73.3843 205.881C73.238 206.221 73.018 206.478 72.7243 206.654C72.4287 206.829 72.0912 206.918 71.7119 206.921C71.3317 206.926 70.9401 206.842 70.537 206.668C70.1283 206.492 69.801 206.266 69.555 205.991C69.3063 205.717 69.148 205.416 69.0801 205.089C69.0115 204.764 69.0443 204.438 69.1785 204.111L70.1825 204.544Z" fill="#F2F2F2"/>
<path id="f" d="M66.7207 197.854L63.7026 203.353L60.1803 201.419L60.6386 200.584L63.1649 201.971L63.9843 200.478L61.6996 199.224L62.1579 198.389L64.4426 199.643L65.7247 197.308L66.7207 197.854Z" fill="#F2F2F2"/>
<path id="a_2" d="M58.065 192.767L59.0656 193.452L53.7 197.379L52.5427 196.587L54.2621 190.163L55.2627 190.848L53.8279 195.908L53.8683 195.936L58.065 192.767ZM56.6427 194.773L53.9137 192.904L54.4293 192.151L57.1583 194.02L56.6427 194.773Z" fill="#F2F2F2"/>
<path id="&#195;&#167;" d="M43.8753 187.106L44.7495 187.846C44.653 188.011 44.5915 188.176 44.5648 188.344C44.5368 188.513 44.5397 188.678 44.5735 188.841C44.6072 189.003 44.6715 189.158 44.7663 189.305C44.8582 189.452 44.9774 189.588 45.1239 189.712C45.3841 189.932 45.6702 190.062 45.982 190.101C46.2925 190.142 46.6108 190.085 46.937 189.931C47.2618 189.778 47.5766 189.521 47.8813 189.161C48.1914 188.795 48.3957 188.439 48.4943 188.091C48.5901 187.744 48.5924 187.423 48.5011 187.126C48.4069 186.83 48.2305 186.572 47.9719 186.353C47.8285 186.231 47.6787 186.137 47.5223 186.069C47.3631 186.001 47.202 185.962 47.039 185.952C46.8744 185.941 46.7116 185.961 46.5507 186.012C46.3882 186.062 46.2344 186.146 46.0891 186.264L45.2189 185.519C45.4443 185.319 45.6959 185.166 45.9738 185.059C46.2502 184.95 46.5403 184.893 46.8441 184.888C47.1466 184.885 47.451 184.939 47.7573 185.052C48.0623 185.165 48.3573 185.343 48.6425 185.584C49.0632 185.941 49.3563 186.356 49.5218 186.83C49.6872 187.305 49.7093 187.806 49.5881 188.335C49.4668 188.864 49.1885 189.385 48.7532 189.899C48.3165 190.415 47.8473 190.775 47.3457 190.979C46.8426 191.185 46.3435 191.245 45.8483 191.16C45.353 191.075 44.8966 190.856 44.479 190.502C44.2125 190.277 43.9964 190.029 43.8307 189.761C43.6649 189.492 43.5538 189.209 43.4973 188.913C43.4395 188.618 43.4413 188.317 43.5028 188.01C43.5614 187.704 43.6855 187.403 43.8753 187.106ZM48.8286 185.862L48.3704 185.474L48.576 185.307C48.448 185.162 48.3716 185.001 48.3469 184.825C48.3219 184.646 48.3819 184.47 48.527 184.299C48.7128 184.076 48.9622 183.982 49.2751 184.017C49.588 184.052 49.9291 184.226 50.2984 184.539L49.9555 184.963C49.7763 184.811 49.6133 184.714 49.4664 184.673C49.3209 184.63 49.2038 184.659 49.1152 184.761C49.0276 184.858 49.003 184.963 49.0413 185.075C49.0794 185.185 49.1746 185.319 49.3268 185.478L48.8286 185.862Z" fill="#F2F2F2"/>
<path id="&#195;&#163;" d="M42.663 180.21L43.5039 181.084L37.4534 183.842L36.4808 182.831L39.4671 176.889L40.308 177.763L37.877 182.427L37.911 182.463L42.663 180.21ZM40.8634 181.887L38.57 179.504L39.2276 178.871L41.521 181.254L40.8634 181.887ZM37.1436 184.412L37.5997 184.908C37.3378 185.16 37.0675 185.29 36.7887 185.298C36.5084 185.304 36.2734 185.209 36.0837 185.011C35.9917 184.916 35.9279 184.817 35.8923 184.715C35.8538 184.614 35.8269 184.513 35.8115 184.415C35.796 184.316 35.7769 184.223 35.754 184.134C35.7297 184.047 35.6843 183.969 35.6178 183.9C35.5371 183.816 35.4417 183.78 35.3317 183.793C35.2203 183.804 35.1147 183.856 35.0147 183.949L34.578 183.456C34.8427 183.204 35.1131 183.075 35.3889 183.07C35.6634 183.067 35.8954 183.162 36.0852 183.357C36.1886 183.464 36.2595 183.569 36.2979 183.671C36.3349 183.774 36.359 183.872 36.3702 183.966C36.38 184.059 36.3956 184.147 36.4171 184.232C36.4371 184.317 36.4825 184.397 36.5533 184.47C36.6283 184.548 36.7208 184.583 36.8307 184.573C36.9392 184.562 37.0435 184.509 37.1436 184.412Z" fill="#F2F2F2"/>
<path id="o" d="M30.577 170.963C31.1107 170.548 31.6455 170.293 32.1813 170.198C32.7142 170.102 33.2149 170.147 33.6832 170.334C34.1503 170.519 34.5523 170.829 34.8892 171.262C35.2262 171.696 35.4273 172.163 35.4925 172.663C35.5549 173.163 35.4743 173.66 35.2507 174.154C35.0242 174.648 34.645 175.101 34.1129 175.515C33.5792 175.929 33.0459 176.185 32.5129 176.281C31.9771 176.376 31.4756 176.332 31.0085 176.146C30.5402 175.959 30.1376 175.649 29.8007 175.215C29.4637 174.782 29.2633 174.316 29.1993 173.817C29.134 173.317 29.2146 172.82 29.4411 172.326C29.6647 171.832 30.0433 171.378 30.577 170.963ZM31.2778 171.865C30.9021 172.157 30.631 172.462 30.4645 172.78C30.2951 173.098 30.2244 173.411 30.2525 173.72C30.279 174.031 30.3968 174.32 30.606 174.59C30.8152 174.859 31.0669 175.045 31.361 175.147C31.6535 175.251 31.9753 175.261 32.3263 175.177C32.6745 175.093 33.0364 174.904 33.4121 174.613C33.7878 174.321 34.0603 174.016 34.2297 173.698C34.3963 173.38 34.4663 173.066 34.4398 172.756C34.4117 172.446 34.293 172.157 34.0839 171.888C33.8747 171.619 33.6238 171.432 33.3313 171.329C33.0372 171.226 32.716 171.217 32.3678 171.301C32.0168 171.385 31.6535 171.573 31.2778 171.865Z" fill="#F2F2F2"/>
<path id="G" d="M21.4226 158.366C21.301 158.489 21.2039 158.621 21.1313 158.762C21.0559 158.902 21.0063 159.05 20.9825 159.204C20.9577 159.356 20.9622 159.513 20.9962 159.676C21.0284 159.839 21.0889 160.004 21.1777 160.169C21.3371 160.466 21.5537 160.691 21.8276 160.842C22.1015 160.994 22.419 161.059 22.7801 161.037C23.1384 161.014 23.5244 160.891 23.9381 160.669C24.3555 160.445 24.6737 160.189 24.8928 159.902C25.1119 159.616 25.2342 159.315 25.2597 159C25.2835 158.686 25.2123 158.374 25.0462 158.065C24.8955 157.784 24.7112 157.57 24.4931 157.423C24.2741 157.274 24.0358 157.197 23.778 157.192C23.5185 157.187 23.2547 157.257 22.9867 157.401L22.9 157.156L23.7055 158.656L22.923 159.076L21.7192 156.834L22.3829 156.477C22.856 156.223 23.3193 156.104 23.7729 156.12C24.2264 156.136 24.6414 156.27 25.0177 156.523C25.3923 156.776 25.7023 157.131 25.9476 157.588C26.2209 158.097 26.3467 158.605 26.3249 159.113C26.3004 159.619 26.1347 160.094 25.8279 160.537C25.5183 160.979 25.0721 161.356 24.4893 161.669C24.0432 161.909 23.611 162.06 23.1926 162.122C22.7732 162.183 22.3799 162.165 22.0126 162.068C21.6435 161.971 21.3125 161.804 21.0197 161.565C20.725 161.327 20.4806 161.027 20.2865 160.665C20.1223 160.36 20.0142 160.05 19.9621 159.738C19.9083 159.426 19.9082 159.123 19.9618 158.831C20.0144 158.536 20.1174 158.261 20.2708 158.008C20.4242 157.754 20.6256 157.533 20.875 157.346L21.4226 158.366Z" fill="#F2F2F2"/>
<path id="a_3" d="M22.0605 149.781L22.5182 150.904L15.8766 151.227L15.3472 149.928L20.3209 145.513L20.7786 146.636L16.7938 150.069L16.8123 150.114L22.0605 149.781ZM19.7681 150.672L18.5198 147.61L19.3649 147.265L20.6133 150.328L19.7681 150.672Z" fill="#F2F2F2"/>
<path id="r" d="M18.8405 141.218L12.8278 143.003L12.1584 140.748C12.0213 140.286 11.9865 139.875 12.054 139.514C12.121 139.151 12.2755 138.847 12.5175 138.6C12.757 138.352 13.0685 138.171 13.4522 138.058C13.8377 137.943 14.1968 137.926 14.5294 138.006C14.8595 138.085 15.1489 138.26 15.3977 138.531C15.6445 138.803 15.8364 139.17 15.9736 139.632L16.4503 141.237L15.5461 141.506L15.1129 140.047C15.0327 139.777 14.9299 139.567 14.8044 139.416C14.6769 139.267 14.5285 139.172 14.3593 139.133C14.1875 139.093 13.995 139.104 13.7816 139.167C13.5683 139.231 13.3987 139.327 13.273 139.456C13.1453 139.585 13.0679 139.748 13.0407 139.943C13.0116 140.139 13.0375 140.373 13.1182 140.645L13.4146 141.644L18.5172 140.129L18.8405 141.218ZM15.1939 138.921L17.4765 136.623L17.8373 137.839L15.5469 140.11L15.1939 138.921Z" fill="#F2F2F2"/>
<path id="a_4" d="M16.2664 131.514L16.4956 132.705L9.91924 131.722L9.65414 130.345L15.3953 126.988L15.6245 128.179L11.0451 130.766L11.0544 130.815L16.2664 131.514ZM13.844 131.94L13.2189 128.692L14.115 128.52L14.7402 131.768L13.844 131.94Z" fill="#F2F2F2"/>
<path id="n" d="M8.07414 117.909L14.3219 117.357L14.4108 118.364L10.415 121.683L10.4196 121.735L14.6753 121.36L14.7752 122.491L8.52742 123.043L8.43801 122.03L12.4371 118.713L12.4323 118.658L8.17352 119.034L8.07414 117.909Z" fill="#F2F2F2"/>
<path id="t_2" d="M8.82708 112.777L7.87468 112.768L7.92662 107.764L8.87902 107.774L8.8589 109.712L14.1782 109.767L14.1666 110.894L8.8472 110.839L8.82708 112.777Z" fill="#F2F2F2"/>
<path id="i_2" d="M8.34951 101.61L14.5959 102.178L14.4931 103.309L8.24672 102.742L8.34951 101.61Z" fill="#F2F2F2"/>
<path id="d" d="M15.5619 94.8763L15.193 96.9694L9.01607 95.8809L9.3924 93.7455C9.50047 93.1322 9.71697 92.6272 10.0419 92.2304C10.3652 91.8313 10.7779 91.5537 11.2802 91.3976C11.7825 91.2415 12.3543 91.2199 12.9957 91.333C13.6391 91.4464 14.171 91.6634 14.5913 91.9842C15.0119 92.303 15.3064 92.7084 15.4747 93.2003C15.6434 93.6903 15.6724 94.2489 15.5619 94.8763ZM14.422 95.6799L14.5841 94.76C14.66 94.3297 14.6448 93.9569 14.5386 93.6418C14.4305 93.3262 14.2323 93.0684 13.9441 92.8684C13.654 92.668 13.2726 92.5262 12.8001 92.4429C12.3276 92.3596 11.9227 92.3629 11.5856 92.4527C11.2464 92.5422 10.9744 92.7151 10.7696 92.9713C10.5632 93.2252 10.4231 93.5612 10.3494 93.9794L10.1814 94.9325L14.422 95.6799Z" fill="#F2F2F2"/>
<path id="a_5" d="M17.3767 86.4397L17.0456 87.6064L11.6147 83.7698L11.9976 82.4205L18.6351 82.0057L18.304 83.1724L13.0502 83.4228L13.0369 83.4699L17.3767 86.4397ZM15.0218 85.73L15.9248 82.5481L16.8028 82.7973L15.8998 85.9792L15.0218 85.73Z" fill="#F2F2F2"/>
<path id="&#226;&#128;&#162;" d="M21.8252 70.5673C21.7231 70.7922 21.575 70.9728 21.381 71.1089C21.1851 71.2442 20.9688 71.3255 20.7323 71.3527C20.4966 71.378 20.2662 71.3396 20.0413 71.2375C19.8145 71.1346 19.6339 70.9865 19.4996 70.7933C19.3643 70.5974 19.284 70.3815 19.2587 70.1458C19.2315 69.9093 19.269 69.6785 19.371 69.4536C19.474 69.2268 19.623 69.0466 19.8181 68.9132C20.0121 68.777 20.227 68.6963 20.4627 68.671C20.6974 68.643 20.9281 68.6804 21.155 68.7833C21.3799 68.8854 21.5601 69.0344 21.6954 69.2304C21.8315 69.4244 21.9132 69.6397 21.9404 69.8763C21.9665 70.1101 21.9281 70.3404 21.8252 70.5673Z" fill="#F2F2F2"/>
<path id="S_2" d="M26.4757 55.1267C26.2353 55.006 25.995 54.9946 25.7548 55.0925C25.5157 55.1887 25.3049 55.3784 25.1226 55.6617C24.9944 55.8608 24.9145 56.051 24.8829 56.2322C24.8513 56.4134 24.8627 56.5749 24.9171 56.7167C24.9715 56.8585 25.0642 56.9729 25.1953 57.0597C25.3052 57.1304 25.4165 57.1668 25.5293 57.1689C25.6431 57.1694 25.7565 57.144 25.8695 57.0929C25.9808 57.0407 26.0896 56.9736 26.1959 56.8914C26.3022 56.8093 26.403 56.7224 26.4983 56.6308L26.9402 56.2159C27.1147 56.0466 27.3006 55.8955 27.4978 55.7626C27.6961 55.628 27.9023 55.5264 28.1164 55.4578C28.3316 55.3875 28.5518 55.3641 28.777 55.3877C29.0022 55.4112 29.229 55.4965 29.4574 55.6434C29.7664 55.8423 29.9877 56.0964 30.1213 56.4058C30.2531 56.714 30.289 57.06 30.2289 57.4438C30.1683 57.8248 30.002 58.2265 29.7302 58.6488C29.4661 59.0592 29.1733 59.3745 28.8518 59.5949C28.5314 59.8136 28.1946 59.9295 27.8414 59.9426C27.4894 59.9539 27.1338 59.8538 26.7747 59.6421L27.3796 58.7021C27.5722 58.8066 27.7614 58.8483 27.9474 58.8272C28.1334 58.806 28.3078 58.735 28.4707 58.614C28.6346 58.4913 28.7807 58.3303 28.9089 58.1312C29.0426 57.9234 29.1288 57.7215 29.1675 57.5255C29.2056 57.3267 29.1976 57.1467 29.1435 56.9856C29.0876 56.8234 28.9847 56.6929 28.8347 56.5939C28.6963 56.5072 28.557 56.4747 28.4169 56.4962C28.2751 56.5166 28.1283 56.5787 27.9765 56.6825C27.8241 56.7835 27.663 56.913 27.4934 57.0709L26.9527 57.5715C26.5616 57.9341 26.1715 58.1686 25.7825 58.2752C25.3928 58.3789 25.0091 58.3092 24.6314 58.0661C24.3206 57.8661 24.1027 57.6068 23.9774 57.2883C23.8533 56.9681 23.8208 56.6206 23.8799 56.2459C23.9372 55.87 24.0847 55.4975 24.3223 55.1284C24.5631 54.7541 24.8394 54.4682 25.1511 54.2706C25.4622 54.0702 25.7847 53.9633 26.1186 53.95C26.4508 53.9355 26.7671 54.0213 27.0674 54.2073L26.4757 55.1267Z" fill="#F2F2F2"/>
<path id="a_6" d="M34.1336 52.1744L33.3802 53.1247L29.8368 47.4981L30.7081 46.399L36.9968 48.5624L36.2434 49.5128L31.2956 47.7284L31.2652 47.7668L34.1336 52.1744ZM32.2312 50.6155L34.2858 48.0235L35.001 48.5905L32.9463 51.1824L32.2312 50.6155Z" fill="#F2F2F2"/>
<path id="t_3" d="M35.9954 41.6626L35.3107 41.0005L38.7897 37.4034L39.4743 38.0656L38.1266 39.4591L41.9504 43.1573L41.1669 43.9674L37.3431 40.2692L35.9954 41.6626Z" fill="#F2F2F2"/>
<path id="i_3" d="M43.3282 33.2277L47.4728 37.9353L46.62 38.6861L42.4754 33.9785L43.3282 33.2277Z" fill="#F2F2F2"/>
<path id="s_2" d="M51.5052 28.8855C51.3223 28.6883 51.1011 28.5936 50.8418 28.6013C50.5841 28.6078 50.3204 28.7118 50.0505 28.9134C49.8607 29.0552 49.7194 29.2054 49.6264 29.3641C49.5334 29.5228 49.4876 29.678 49.489 29.8299C49.4903 29.9819 49.5372 30.1214 49.6297 30.2486C49.7079 30.3532 49.7994 30.4263 49.9043 30.4677C50.0108 30.5079 50.1259 30.5239 50.2497 30.5155C50.3722 30.5055 50.4976 30.4807 50.6259 30.4409C50.7542 30.4011 50.879 30.355 51.0004 30.3025L51.5594 30.0683C51.7821 29.9707 52.0091 29.8942 52.2403 29.8387C52.4732 29.7819 52.7019 29.7589 52.9265 29.7695C53.1527 29.7789 53.3672 29.834 53.5699 29.9348C53.7727 30.0356 53.9553 30.1948 54.1179 30.4124C54.3378 30.7068 54.4563 31.0222 54.4732 31.3587C54.4889 31.6936 54.4015 32.0303 54.211 32.3689C54.021 32.7046 53.7247 33.0228 53.3224 33.3234C52.9315 33.6154 52.5469 33.8085 52.1686 33.9025C51.7919 33.9954 51.4359 33.9861 51.1004 33.8749C50.7666 33.7624 50.4685 33.5442 50.2061 33.2203L51.1016 32.5512C51.2454 32.7165 51.4082 32.8217 51.5898 32.867C51.7714 32.9122 51.9597 32.9066 52.1546 32.8502C52.3511 32.7926 52.5442 32.6929 52.7339 32.5512C52.9319 32.4033 53.0832 32.2443 53.1881 32.0742C53.2933 31.9013 53.3488 31.7299 53.3544 31.56C53.3588 31.3885 53.308 31.2302 53.2021 31.0851C53.1027 30.9554 52.9837 30.8762 52.8449 30.8474C52.7049 30.8169 52.5456 30.8237 52.3671 30.8679C52.189 30.9092 51.9928 30.9742 51.7787 31.0628L51.0971 31.3427C50.6038 31.5456 50.1564 31.6289 49.7546 31.5926C49.3533 31.5535 49.0182 31.354 48.7494 30.9942C48.5282 30.6982 48.4146 30.379 48.4087 30.0368C48.4045 29.6934 48.4955 29.3565 48.6819 29.0261C48.8671 28.694 49.1355 28.3966 49.4872 28.1339C49.8437 27.8675 50.2026 27.6963 50.5637 27.6201C50.9252 27.5412 51.2647 27.5539 51.5822 27.6582C51.8985 27.7608 52.1648 27.9518 52.3811 28.2311L51.5052 28.8855Z" fill="#F2F2F2"/>
<path id="f_2" d="M59.0304 29.2206L55.7688 23.8633L59.2009 21.7738L59.6962 22.5873L57.2346 24.086L58.1201 25.5404L60.3462 24.1851L60.8415 24.9987L58.6154 26.3539L60.0009 28.6298L59.0304 29.2206Z" fill="#F2F2F2"/>
<path id="a_7" d="M67.7551 24.2526L66.6623 24.7784L65.9327 18.1691L67.1967 17.561L71.9085 22.2543L70.8157 22.7801L67.1445 19.0135L67.1003 19.0348L67.7551 24.2526ZM66.7248 22.0193L69.7053 20.5853L70.101 21.4077L67.1205 22.8417L66.7248 22.0193Z" fill="#F2F2F2"/>
<path id="&#195;&#167;_2" d="M79.737 14.7747L78.6597 15.1636C78.5652 14.998 78.452 14.8619 78.3203 14.7553C78.1878 14.6469 78.0427 14.5668 77.8852 14.5151C77.7276 14.4635 77.5614 14.4421 77.3866 14.4509C77.2131 14.4571 77.036 14.4928 76.8555 14.5579C76.5348 14.6737 76.2796 14.8569 76.0901 15.1076C75.8999 15.3564 75.7905 15.6607 75.7619 16.0205C75.7326 16.3784 75.798 16.7791 75.9581 17.2228C76.121 17.6741 76.3283 18.029 76.5801 18.2876C76.8331 18.5436 77.1109 18.706 77.4136 18.7747C77.7175 18.8409 78.0288 18.8164 78.3476 18.7014C78.5243 18.6376 78.6811 18.555 78.8181 18.4534C78.9564 18.3493 79.0703 18.2289 79.1599 18.0924C79.2515 17.9552 79.3153 17.8041 79.3513 17.6391C79.3892 17.4735 79.3932 17.2984 79.3635 17.1138L80.443 16.7307C80.5038 17.0257 80.5114 17.3203 80.4657 17.6146C80.4219 17.9083 80.3264 18.188 80.1792 18.4538C80.0314 18.7177 79.8325 18.9545 79.5825 19.1641C79.3319 19.3718 79.0308 19.539 78.6794 19.6658C78.1609 19.853 77.6547 19.9 77.161 19.8069C76.6672 19.7137 76.2214 19.4828 75.8235 19.1142C75.4256 18.7455 75.1123 18.2443 74.8836 17.6106C74.6542 16.9749 74.5762 16.3888 74.6495 15.8522C74.7222 15.3137 74.9187 14.851 75.2392 14.464C75.5597 14.077 75.9773 13.7906 76.492 13.6049C76.8204 13.4864 77.1424 13.4223 77.458 13.4126C77.7735 13.4029 78.074 13.4475 78.3593 13.5463C78.6439 13.6433 78.9037 13.7948 79.1387 14.0009C79.3749 14.2043 79.5744 14.4623 79.737 14.7747ZM78.3457 19.6886L78.9104 19.4848L78.9526 19.7463C79.1429 19.708 79.3205 19.7221 79.4855 19.7884C79.6532 19.856 79.7751 19.9954 79.8513 20.2066C79.9517 20.4786 79.9087 20.7416 79.7225 20.9955C79.5363 21.2493 79.2156 21.4584 78.7605 21.6227L78.5639 21.1141C78.7848 21.0344 78.9497 20.9412 79.0589 20.8345C79.1687 20.7298 79.2016 20.6137 79.1578 20.4862C79.1173 20.3619 79.0386 20.2883 78.9218 20.2653C78.8076 20.2436 78.644 20.2593 78.4308 20.3123L78.3457 19.6886Z" fill="#F2F2F2"/>
<path id="&#195;&#163;_2" d="M86.3184 17.1609L85.1416 17.4542L85.7672 10.8343L87.1283 10.4951L90.7907 16.0462L89.6139 16.3395L86.7826 11.9069L86.7351 11.9187L86.3184 17.1609ZM85.7622 14.7651L88.9716 13.9652L89.1923 14.8507L85.983 15.6506L85.7622 14.7651ZM85.4274 10.2815L84.77 10.4295C84.6821 10.0769 84.7043 9.77783 84.8367 9.53231C84.9711 9.2863 85.171 9.13021 85.4365 9.06405C85.5652 9.03195 85.6826 9.02585 85.7886 9.04573C85.896 9.06314 85.9963 9.0897 86.0893 9.12542C86.1824 9.16114 86.273 9.19116 86.3611 9.21549C86.4488 9.23783 86.5391 9.2374 86.6322 9.21419C86.7452 9.18605 86.8237 9.12123 86.8678 9.01975C86.914 8.91778 86.9215 8.80018 86.8904 8.66695L87.5359 8.53445C87.6223 8.88956 87.5989 9.18789 87.4655 9.42944C87.3316 9.66902 87.1332 9.82263 86.8702 9.89029C86.7256 9.92633 86.5995 9.93565 86.4921 9.91824C86.3842 9.89886 86.2866 9.87056 86.1995 9.83336C86.1144 9.79567 86.03 9.76515 85.9463 9.74182C85.8621 9.71651 85.7705 9.71619 85.6715 9.74088C85.5665 9.76705 85.4907 9.83014 85.444 9.93013C85.3994 10.0296 85.3939 10.1467 85.4274 10.2815Z" fill="#F2F2F2"/>
<path id="o_2" d="M100.36 11.2944C100.453 11.9637 100.408 12.5545 100.224 13.0666C100.041 13.5765 99.7522 13.9879 99.3567 14.3007C98.9633 14.6132 98.4946 14.8074 97.9506 14.8833C97.4067 14.9591 96.9017 14.9007 96.4357 14.708C95.9715 14.513 95.5809 14.1953 95.2639 13.7551C94.9486 13.3126 94.7445 12.7576 94.6514 12.0903C94.5581 11.421 94.6027 10.8314 94.7851 10.3215C94.9693 9.80934 95.2582 9.39698 95.6516 9.08444C96.0471 8.77161 96.5168 8.57728 97.0608 8.50143C97.6047 8.42559 98.1087 8.48416 98.5726 8.67715C99.0385 8.86986 99.4292 9.18749 99.7444 9.63003C100.061 10.0703 100.267 10.6251 100.36 11.2944ZM99.2285 11.4521C99.1628 10.981 99.0336 10.5939 98.8409 10.291C98.6499 9.9857 98.4134 9.7682 98.1315 9.63848C97.8493 9.50673 97.5393 9.4644 97.2016 9.51149C96.8639 9.55858 96.5773 9.68408 96.3419 9.88801C96.1062 10.0899 95.9372 10.3639 95.835 10.7101C95.7345 11.0539 95.7171 11.4614 95.7828 11.9326C95.8485 12.4037 95.9769 12.792 96.1678 13.0972C96.3606 13.4002 96.5981 13.6175 96.8803 13.7493C97.1622 13.879 97.4721 13.9203 97.8098 13.8732C98.1475 13.8261 98.4342 13.7016 98.6699 13.4997C98.9053 13.2958 99.0733 13.0219 99.1737 12.6781C99.276 12.3319 99.2942 11.9233 99.2285 11.4521Z" fill="#F2F2F2"/>
<path id="G_2" d="M115.845 9.63926C115.799 9.47247 115.732 9.32245 115.646 9.18922C115.563 9.05401 115.46 8.93764 115.338 8.84013C115.218 8.74268 115.08 8.66817 114.922 8.61658C114.764 8.56296 114.591 8.53341 114.403 8.52793C114.067 8.51811 113.764 8.59405 113.496 8.75576C113.228 8.91746 113.013 9.1604 112.853 9.48457C112.694 9.80675 112.608 10.2025 112.594 10.6719C112.581 11.1454 112.643 11.5486 112.783 11.8815C112.922 12.2144 113.122 12.4705 113.382 12.6497C113.643 12.8268 113.948 12.9205 114.3 12.9307C114.618 12.94 114.895 12.8868 115.131 12.7711C115.37 12.6555 115.555 12.4873 115.688 12.2665C115.822 12.0437 115.893 11.7802 115.901 11.4762L116.157 11.5235L114.455 11.4738L114.481 10.586L117.025 10.6603L117.003 11.4133C116.988 11.9501 116.86 12.411 116.62 12.7962C116.38 13.1814 116.057 13.4742 115.65 13.6748C115.244 13.8733 114.782 13.965 114.264 13.9499C113.686 13.9331 113.183 13.7887 112.754 13.5168C112.326 13.2428 111.997 12.8625 111.767 12.3758C111.538 11.8871 111.433 11.3121 111.452 10.6509C111.467 10.1447 111.552 9.69478 111.706 9.30099C111.863 8.90725 112.075 8.57539 112.342 8.3054C112.609 8.03337 112.919 7.82999 113.273 7.69528C113.626 7.55852 114.008 7.49612 114.418 7.50809C114.765 7.51821 115.087 7.57867 115.384 7.68946C115.681 7.79822 115.943 7.94885 116.17 8.14135C116.4 8.33391 116.586 8.55995 116.73 8.81946C116.873 9.07897 116.964 9.36349 117.002 9.67302L115.845 9.63926Z" fill="#F2F2F2"/>
<path id="a_8" d="M122.968 14.4715L121.766 14.3084L124.797 8.39022L126.187 8.57886L127.535 15.0913L126.333 14.9282L125.344 9.76242L125.295 9.75583L122.968 14.4715ZM123.338 12.0399L126.615 12.4848L126.492 13.3891L123.215 12.9443L123.338 12.0399Z" fill="#F2F2F2"/>
<path id="r_2" d="M131.996 15.9493L133.446 9.84717L135.735 10.391C136.203 10.5024 136.577 10.6773 136.857 10.9158C137.138 11.1546 137.325 11.4404 137.418 11.7731C137.513 12.1043 137.515 12.4646 137.422 12.8539C137.329 13.2452 137.165 13.565 136.93 13.8134C136.697 14.0603 136.401 14.2239 136.042 14.3044C135.683 14.3828 135.269 14.3663 134.801 14.2549L133.171 13.8676L133.389 12.9499L134.87 13.3018C135.144 13.367 135.377 13.3826 135.57 13.3486C135.763 13.3127 135.919 13.2312 136.037 13.104C136.158 12.9753 136.244 12.8027 136.296 12.5862C136.347 12.3697 136.349 12.1748 136.299 12.0016C136.251 11.8263 136.149 11.6782 135.993 11.5572C135.837 11.4342 135.621 11.3399 135.345 11.2743L134.332 11.0335L133.102 16.212L131.996 15.9493ZM135.806 13.9335L136.659 17.0575L135.426 16.7643L134.599 13.6467L135.806 13.9335Z" fill="#F2F2F2"/>
<path id="a_9" d="M141.692 18.556L140.545 18.161L144.676 12.9502L146.002 13.407L146.049 20.0573L144.903 19.6623L144.943 14.4027L144.897 14.3867L141.692 18.556ZM142.53 16.2439L145.657 17.3212L145.36 18.1841L142.233 17.1068L142.53 16.2439Z" fill="#F2F2F2"/>
<path id="n_2" d="M157.57 18.2375L154.934 23.9285L154.017 23.5037L153.131 18.3849L153.084 18.363L151.288 22.2394L150.257 21.7618L152.894 16.0708L153.816 16.4982L154.698 21.6185L154.748 21.6417L156.545 17.7625L157.57 18.2375Z" fill="#F2F2F2"/>
<path id="t_4" d="M161.643 21.4481L162.126 20.6274L166.438 23.1671L165.955 23.9878L164.284 23.0039L161.585 27.5876L160.614 27.0156L163.313 22.432L161.643 21.4481Z" fill="#F2F2F2"/>
<path id="i_4" d="M171.561 26.6015L167.955 31.7334L167.026 31.0801L170.632 25.9482L171.561 26.6015Z" fill="#F2F2F2"/>
<path id="d_2" d="M173.803 36.2108L172.173 34.8475L176.196 30.0356L177.859 31.4264C178.337 31.8259 178.667 32.2653 178.849 32.7448C179.034 33.224 179.068 33.7202 178.953 34.2334C178.838 34.7466 178.572 35.2531 178.154 35.7528C177.735 36.254 177.282 36.6068 176.794 36.8113C176.308 37.017 175.81 37.0702 175.299 36.9708C174.791 36.8727 174.292 36.6194 173.803 36.2108ZM173.675 34.8221L174.391 35.4212C174.727 35.7015 175.057 35.8742 175.383 35.9393C175.711 36.0028 176.033 35.9595 176.35 35.8095C176.669 35.6578 176.982 35.398 177.289 35.0299C177.597 34.6618 177.796 34.3092 177.886 33.9721C177.978 33.6335 177.964 33.3115 177.844 33.0063C177.727 32.7007 177.505 32.4118 177.179 32.1394L176.437 31.5186L173.675 34.8221Z" fill="#F2F2F2"/>
<path id="a_10" d="M180.212 41.9901L179.366 41.1215L185.399 38.3262L186.378 39.3309L183.428 45.2915L182.582 44.4228L184.984 39.7437L184.95 39.7086L180.212 41.9901ZM182.001 40.3025L184.309 42.6716L183.656 43.3085L181.347 40.9394L182.001 40.3025Z" fill="#F2F2F2"/>
<path id="&#226;&#128;&#162;_2" d="M191.753 53.759C191.609 53.5583 191.527 53.3399 191.505 53.1038C191.486 52.8665 191.523 52.6386 191.617 52.42C191.713 52.203 191.861 52.0225 192.062 51.8784C192.264 51.7331 192.482 51.6504 192.717 51.6303C192.954 51.6107 193.181 51.6487 193.398 51.7442C193.617 51.8386 193.798 51.9861 193.942 52.1867C194.088 52.3891 194.169 52.608 194.188 52.8437C194.209 53.0798 194.172 53.3063 194.076 53.5232C193.984 53.7406 193.836 53.922 193.634 54.0673C193.433 54.2114 193.214 54.2933 192.977 54.3129C192.741 54.3342 192.514 54.2976 192.295 54.2033C192.079 54.1094 191.899 53.9613 191.753 53.759Z" fill="#F2F2F2"/>
<path id="S_3" d="M202.82 65.4882C203.044 65.34 203.174 65.1373 203.209 64.8803C203.245 64.625 203.186 64.3478 203.031 64.0485C202.922 63.8381 202.797 63.674 202.656 63.5563C202.514 63.4386 202.369 63.3679 202.219 63.3444C202.069 63.3208 201.923 63.3442 201.783 63.4146C201.667 63.4746 201.58 63.5529 201.522 63.6496C201.464 63.7481 201.43 63.859 201.418 63.9825C201.408 64.105 201.412 64.2327 201.43 64.3658C201.448 64.4989 201.473 64.6296 201.505 64.7579L201.644 65.3478C201.704 65.5835 201.742 65.8199 201.759 66.0571C201.777 66.2961 201.762 66.5255 201.715 66.7453C201.669 66.9669 201.579 67.1695 201.447 67.353C201.314 67.5365 201.127 67.6906 200.886 67.8152C200.559 67.984 200.229 68.0491 199.894 68.0107C199.561 67.9713 199.243 67.83 198.94 67.5865C198.64 67.344 198.375 66.9997 198.144 66.5535C197.92 66.12 197.793 65.7089 197.762 65.3204C197.732 64.9336 197.8 64.5838 197.964 64.2712C198.13 63.9603 198.394 63.702 198.757 63.4962L199.27 64.4893C199.083 64.6041 198.953 64.7474 198.879 64.9191C198.804 65.0909 198.779 65.2775 198.802 65.479C198.827 65.6823 198.894 65.8892 199.003 66.0995C199.116 66.319 199.248 66.4944 199.399 66.6257C199.552 66.7579 199.712 66.8407 199.879 66.874C200.047 66.9065 200.212 66.8824 200.372 66.8017C200.516 66.7249 200.614 66.6204 200.665 66.4882C200.718 66.3551 200.737 66.1968 200.723 66.0135C200.712 65.831 200.68 65.6269 200.627 65.4011L200.463 64.6829C200.344 64.163 200.335 63.7079 200.436 63.3176C200.541 62.9281 200.792 62.6302 201.191 62.424C201.52 62.2543 201.853 62.1946 202.192 62.2448C202.531 62.2969 202.849 62.442 203.144 62.68C203.441 62.9171 203.691 63.2306 203.892 63.6206C204.097 64.016 204.207 64.398 204.223 64.7667C204.241 65.1363 204.173 65.4691 204.018 65.7652C203.865 66.0604 203.633 66.2918 203.322 66.4594L202.82 65.4882Z" fill="#F2F2F2"/>
<path id="a_11" d="M201.561 73.5981L201.113 72.4712L207.757 72.2045L208.276 73.5079L203.265 77.8808L202.817 76.7539L206.83 73.3544L206.812 73.3089L201.561 73.5981ZM203.861 72.726L205.084 75.7994L204.236 76.1367L203.013 73.0634L203.861 72.726Z" fill="#F2F2F2"/>
<path id="t_5" d="M209.745 80.4528L210.661 80.1895L212.044 84.9985L211.129 85.2619L210.593 83.3989L205.481 84.8699L205.169 83.7868L210.281 82.3158L209.745 80.4528Z" fill="#F2F2F2"/>
<path id="i_5" d="M213.402 91.0144L207.255 92.2603L207.029 91.1467L213.176 89.9009L213.402 91.0144Z" fill="#F2F2F2"/>
<path id="s_3" d="M213.089 100.268C213.351 100.207 213.544 100.063 213.666 99.8344C213.789 99.6078 213.83 99.3273 213.79 98.9928C213.762 98.7577 213.702 98.5602 213.611 98.4005C213.52 98.2408 213.408 98.1237 213.276 98.0491C213.143 97.9746 212.999 97.9457 212.842 97.9624C212.713 97.978 212.604 98.021 212.516 98.0912C212.428 98.1635 212.356 98.2553 212.302 98.3668C212.25 98.478 212.209 98.5991 212.179 98.7301C212.15 98.8612 212.127 98.9924 212.112 99.1237L212.037 99.7251C212.01 99.9668 211.963 100.202 211.896 100.43C211.829 100.66 211.735 100.87 211.614 101.059C211.493 101.251 211.339 101.409 211.15 101.534C210.962 101.66 210.733 101.739 210.463 101.771C210.098 101.815 209.766 101.761 209.465 101.608C209.167 101.454 208.919 101.211 208.72 100.877C208.524 100.545 208.396 100.129 208.336 99.6306C208.278 99.1461 208.302 98.7165 208.409 98.3416C208.517 97.9689 208.702 97.6648 208.966 97.4295C209.23 97.1962 209.567 97.0466 209.979 96.9806L210.113 98.0904C209.898 98.1327 209.725 98.2213 209.595 98.3562C209.466 98.4911 209.377 98.6571 209.328 98.8541C209.28 99.0532 209.271 99.2703 209.299 99.5055C209.328 99.7507 209.391 99.9612 209.486 100.137C209.583 100.314 209.704 100.448 209.849 100.537C209.995 100.627 210.158 100.662 210.336 100.642C210.498 100.621 210.626 100.557 210.721 100.451C210.817 100.345 210.89 100.203 210.941 100.027C210.994 99.8516 211.035 99.6492 211.065 99.4194L211.162 98.689C211.232 98.1603 211.383 97.7308 211.615 97.4006C211.849 97.0723 212.189 96.8812 212.635 96.8276C213.002 96.7834 213.335 96.8441 213.635 97.0096C213.935 97.1771 214.181 97.424 214.375 97.7503C214.57 98.0764 214.694 98.4573 214.747 98.8931C214.8 99.335 214.769 99.7315 214.655 100.082C214.544 100.435 214.363 100.723 214.115 100.946C213.868 101.169 213.57 101.305 213.22 101.353L213.089 100.268Z" fill="#F2F2F2"/>
<path id="f_3" d="M209.048 106.624L215.318 106.468L215.418 110.485L214.466 110.508L214.394 107.627L212.692 107.67L212.757 110.275L211.805 110.299L211.739 107.694L209.076 107.76L209.048 106.624Z" fill="#F2F2F2"/>
<path id="a_12" d="M209.004 116.664L209.093 115.454L215.186 118.117L215.083 119.516L208.666 121.26L208.755 120.051L213.85 118.746L213.854 118.697L209.004 116.664ZM211.454 116.884L211.211 120.182L210.301 120.115L210.544 116.817L211.454 116.884Z" fill="#F2F2F2"/>
<path id="&#195;&#167;_3" d="M211.247 131.776L211.447 130.648C211.638 130.648 211.812 130.618 211.97 130.557C212.13 130.496 212.272 130.411 212.395 130.3C212.519 130.189 212.62 130.055 212.699 129.9C212.781 129.746 212.838 129.575 212.871 129.386C212.931 129.05 212.899 128.738 212.776 128.448C212.656 128.159 212.446 127.913 212.149 127.709C211.853 127.505 211.473 127.362 211.009 127.279C210.536 127.196 210.125 127.198 209.776 127.288C209.428 127.379 209.148 127.539 208.938 127.767C208.729 127.998 208.595 128.28 208.536 128.614C208.503 128.799 208.496 128.976 208.516 129.145C208.537 129.317 208.585 129.476 208.659 129.621C208.732 129.769 208.831 129.9 208.956 130.013C209.081 130.129 209.231 130.219 209.406 130.286L209.199 131.412C208.913 131.318 208.654 131.178 208.422 130.991C208.189 130.807 207.994 130.585 207.837 130.325C207.682 130.065 207.576 129.775 207.519 129.453C207.464 129.133 207.469 128.788 207.534 128.42C207.631 127.878 207.842 127.415 208.169 127.034C208.496 126.652 208.918 126.381 209.436 126.22C209.954 126.059 210.545 126.037 211.208 126.155C211.874 126.273 212.421 126.497 212.849 126.828C213.28 127.16 213.583 127.561 213.759 128.032C213.934 128.502 213.974 129.007 213.879 129.546C213.818 129.89 213.713 130.201 213.564 130.479C213.415 130.757 213.227 130.996 212.999 131.194C212.773 131.392 212.512 131.542 212.216 131.643C211.922 131.746 211.599 131.79 211.247 131.776ZM207.681 128.12L207.576 128.711L207.328 128.617C207.267 128.801 207.166 128.948 207.026 129.058C206.884 129.17 206.702 129.206 206.481 129.167C206.195 129.118 205.989 128.95 205.862 128.662C205.734 128.374 205.713 127.992 205.798 127.515L206.336 127.598C206.295 127.829 206.294 128.019 206.332 128.167C206.368 128.314 206.452 128.401 206.585 128.426C206.713 128.453 206.816 128.421 206.894 128.332C206.97 128.243 207.038 128.094 207.098 127.883L207.681 128.12Z" fill="#F2F2F2"/>
<path id="&#195;&#163;_3" d="M205.897 136.291L206.23 135.125L211.656 138.967L211.272 140.316L204.634 140.724L204.966 139.557L210.22 139.313L210.234 139.266L205.897 136.291ZM208.251 137.003L207.345 140.184L206.467 139.934L207.374 136.753L208.251 137.003ZM212.305 138.948L212.504 138.305C212.854 138.404 213.102 138.573 213.249 138.81C213.395 139.049 213.431 139.3 213.356 139.563C213.319 139.691 213.266 139.795 213.196 139.877C213.127 139.962 213.054 140.036 212.977 140.098C212.9 140.161 212.828 140.225 212.763 140.289C212.7 140.354 212.656 140.433 212.629 140.525C212.598 140.637 212.615 140.737 212.681 140.826C212.746 140.917 212.844 140.982 212.975 141.021L212.768 141.647C212.417 141.545 212.17 141.376 212.027 141.14C211.886 140.904 211.852 140.656 211.925 140.394C211.966 140.251 212.02 140.137 212.089 140.052C212.16 139.968 212.233 139.898 212.308 139.841C212.384 139.786 212.452 139.728 212.514 139.667C212.578 139.607 212.624 139.528 212.652 139.429C212.682 139.325 212.665 139.228 212.601 139.138C212.537 139.05 212.438 138.986 212.305 138.948Z" fill="#F2F2F2"/>
<path id="o_3" d="M203.983 151.388C203.356 151.135 202.866 150.802 202.514 150.387C202.163 149.974 201.951 149.519 201.877 149.02C201.802 148.523 201.867 148.02 202.073 147.51C202.278 147.001 202.58 146.593 202.98 146.285C203.38 145.979 203.85 145.799 204.39 145.744C204.931 145.691 205.514 145.791 206.139 146.043C206.765 146.296 207.254 146.628 207.605 147.041C207.957 147.456 208.171 147.912 208.246 148.409C208.32 148.907 208.254 149.411 208.048 149.921C207.843 150.43 207.541 150.838 207.142 151.144C206.743 151.452 206.273 151.632 205.732 151.684C205.193 151.74 204.609 151.641 203.983 151.388ZM204.41 150.329C204.851 150.507 205.251 150.588 205.61 150.572C205.97 150.558 206.276 150.462 206.529 150.282C206.784 150.103 206.975 149.855 207.103 149.539C207.23 149.223 207.264 148.912 207.205 148.606C207.147 148.301 206.994 148.018 206.745 147.757C206.497 147.499 206.152 147.28 205.711 147.102C205.27 146.924 204.87 146.842 204.51 146.856C204.151 146.872 203.844 146.969 203.589 147.148C203.336 147.328 203.146 147.576 203.018 147.892C202.891 148.208 202.856 148.519 202.913 148.824C202.973 149.13 203.126 149.412 203.374 149.67C203.624 149.931 203.969 150.151 204.41 150.329Z" fill="#F2F2F2"/>
<path id="G_3" d="M197.698 165.636C197.865 165.68 198.028 165.697 198.186 165.689C198.346 165.684 198.498 165.653 198.643 165.596C198.787 165.54 198.921 165.457 199.044 165.346C199.169 165.236 199.281 165.101 199.379 164.941C199.556 164.654 199.641 164.354 199.634 164.041C199.628 163.728 199.524 163.421 199.323 163.12C199.123 162.822 198.823 162.55 198.423 162.304C198.019 162.056 197.638 161.91 197.28 161.864C196.922 161.819 196.601 161.865 196.315 162.001C196.032 162.139 195.798 162.357 195.615 162.656C195.448 162.927 195.356 163.194 195.338 163.457C195.32 163.721 195.373 163.966 195.498 164.191C195.625 164.418 195.818 164.611 196.077 164.77L195.908 164.968L196.8 163.517L197.557 163.983L196.224 166.151L195.582 165.756C195.125 165.475 194.789 165.134 194.575 164.734C194.36 164.334 194.267 163.908 194.296 163.456C194.326 163.005 194.477 162.559 194.749 162.117C195.052 161.625 195.428 161.26 195.877 161.024C196.328 160.79 196.821 160.694 197.358 160.737C197.896 160.782 198.447 160.978 199.01 161.324C199.442 161.59 199.79 161.887 200.054 162.218C200.317 162.549 200.499 162.899 200.6 163.265C200.703 163.632 200.724 164.003 200.665 164.376C200.607 164.75 200.471 165.112 200.256 165.462C200.075 165.758 199.862 166.007 199.618 166.209C199.375 166.412 199.114 166.564 198.834 166.665C198.552 166.768 198.264 166.817 197.967 166.812C197.67 166.807 197.379 166.744 197.091 166.623L197.698 165.636Z" fill="#F2F2F2"/>
<path id="a_13" d="M189.957 169.402L190.698 168.442L194.317 174.02L193.46 175.131L187.143 173.052L187.884 172.092L192.855 173.81L192.885 173.771L189.957 169.402ZM191.881 170.935L189.861 173.555L189.138 172.998L191.158 170.378L191.881 170.935Z" fill="#F2F2F2"/>
<path id="r_3" d="M184.175 176.492L188.742 180.791L187.13 182.504C186.799 182.854 186.461 183.091 186.116 183.214C185.768 183.339 185.427 183.359 185.093 183.273C184.758 183.191 184.445 183.013 184.154 182.738C183.861 182.463 183.665 182.161 183.567 181.833C183.469 181.508 183.475 181.17 183.584 180.819C183.695 180.469 183.916 180.118 184.246 179.768L185.394 178.548L186.081 179.194L185.038 180.303C184.845 180.508 184.715 180.702 184.648 180.886C184.583 181.072 184.576 181.247 184.627 181.413C184.678 181.582 184.785 181.743 184.947 181.896C185.109 182.048 185.277 182.146 185.452 182.19C185.628 182.235 185.808 182.221 185.99 182.146C186.174 182.072 186.364 181.932 186.558 181.726L187.272 180.968L183.396 177.319L184.175 176.492ZM184.024 180.799L180.89 179.981L181.759 179.058L184.874 179.896L184.024 180.799Z" fill="#F2F2F2"/>
<path id="a_14" d="M177.082 183.597L177.996 182.8L180.454 188.979L179.397 189.9L173.608 186.626L174.522 185.829L179.062 188.486L179.099 188.454L177.082 183.597ZM178.668 185.477L176.176 187.651L175.576 186.963L178.069 184.789L178.668 185.477Z" fill="#F2F2F2"/>
<path id="n_3" d="M169.442 197.521L165.823 192.398L166.649 191.815L171.528 193.599L171.57 193.569L169.105 190.08L170.033 189.424L173.652 194.547L172.822 195.134L167.944 193.345L167.899 193.377L170.365 196.869L169.442 197.521Z" fill="#F2F2F2"/>
<path id="t_6" d="M164.629 199.45L165.099 200.278L160.748 202.75L160.277 201.922L161.963 200.964L159.336 196.339L160.316 195.782L162.943 200.408L164.629 199.45Z" fill="#F2F2F2"/>
<path id="i_6" d="M155.217 205.479L152.566 199.795L153.596 199.315L156.247 204.999L155.217 205.479Z" fill="#F2F2F2"/>
<path id="d_3" d="M145.769 202.632L147.764 201.898L149.929 207.784L147.894 208.533C147.31 208.748 146.765 208.815 146.258 208.733C145.751 208.655 145.303 208.438 144.916 208.082C144.528 207.726 144.222 207.243 143.997 206.632C143.772 206.018 143.692 205.45 143.758 204.925C143.822 204.401 144.024 203.943 144.364 203.55C144.703 203.158 145.171 202.852 145.769 202.632ZM147.037 203.213L146.16 203.535C145.75 203.686 145.436 203.887 145.217 204.137C144.998 204.389 144.875 204.69 144.847 205.04C144.82 205.391 144.889 205.792 145.055 206.243C145.22 206.693 145.427 207.041 145.674 207.287C145.922 207.535 146.208 207.684 146.533 207.732C146.856 207.783 147.217 207.735 147.615 207.588L148.524 207.254L147.037 203.213Z" fill="#F2F2F2"/>
<path id="a_15" d="M137.564 205.306L138.739 205.006L138.154 211.629L136.796 211.977L133.099 206.449L134.274 206.148L137.133 210.563L137.18 210.551L137.564 205.306ZM138.135 207.699L134.931 208.518L134.705 207.634L137.909 206.814L138.135 207.699Z" fill="#F2F2F2"/>
<path id="&#226;&#128;&#162;_3" d="M121.608 209.444C121.854 209.419 122.084 209.456 122.3 209.555C122.515 209.657 122.694 209.803 122.837 209.993C122.977 210.184 123.06 210.403 123.085 210.649C123.11 210.896 123.073 211.127 122.973 211.34C122.872 211.556 122.726 211.734 122.535 211.874C122.344 212.017 122.126 212.1 121.88 212.125C121.632 212.15 121.401 212.112 121.188 212.01C120.973 211.911 120.795 211.766 120.654 211.575C120.512 211.386 120.428 211.168 120.403 210.92C120.378 210.674 120.417 210.444 120.518 210.228C120.617 210.013 120.762 209.834 120.953 209.692C121.142 209.552 121.36 209.469 121.608 209.444Z" fill="#F2F2F2"/>
</g>
<g id="Texto">
<g id="dias">
<path id="Vector" d="M153.225 165.466C150.787 165.466 148.453 165.124 146.223 164.44C143.993 163.727 142.223 162.82 140.915 161.72L142.922 157.215C144.171 158.196 145.717 159.014 147.561 159.668C149.404 160.322 151.292 160.649 153.225 160.649C154.86 160.649 156.183 160.471 157.194 160.114C158.205 159.757 158.948 159.281 159.424 158.687C159.9 158.062 160.138 157.364 160.138 156.591C160.138 155.639 159.796 154.881 159.112 154.316C158.428 153.721 157.536 153.26 156.436 152.933C155.366 152.577 154.161 152.25 152.823 151.952C151.515 151.655 150.192 151.313 148.854 150.926C147.546 150.51 146.341 149.99 145.241 149.365C144.171 148.711 143.294 147.849 142.61 146.779C141.926 145.708 141.584 144.34 141.584 142.675C141.584 140.981 142.03 139.434 142.922 138.037C143.844 136.61 145.226 135.48 147.07 134.647C148.943 133.785 151.307 133.354 154.161 133.354C156.035 133.354 157.893 133.592 159.736 134.068C161.58 134.543 163.185 135.227 164.553 136.119L162.725 140.624C161.327 139.791 159.885 139.182 158.398 138.795C156.912 138.379 155.484 138.171 154.117 138.171C152.511 138.171 151.203 138.364 150.192 138.751C149.211 139.137 148.482 139.643 148.007 140.267C147.561 140.891 147.338 141.605 147.338 142.408C147.338 143.359 147.665 144.132 148.319 144.727C149.003 145.292 149.88 145.738 150.95 146.065C152.05 146.392 153.269 146.719 154.607 147.046C155.945 147.344 157.268 147.685 158.577 148.072C159.915 148.459 161.119 148.964 162.189 149.588C163.289 150.213 164.167 151.06 164.821 152.131C165.505 153.201 165.847 154.554 165.847 156.189C165.847 157.854 165.386 159.4 164.464 160.828C163.572 162.225 162.189 163.355 160.316 164.217C158.443 165.05 156.079 165.466 153.225 165.466Z" fill="#F2F2F2"/>
<path id="Vector_2" d="M105.725 165.02L119.774 133.8H125.482L139.576 165.02H133.51L121.424 136.877H123.743L111.701 165.02H105.725ZM112.192 157.795L113.753 153.245H130.611L132.172 157.795H112.192Z" fill="#F2F2F2"/>
<path id="Vector_3" d="M95.8977 165.02V133.8H101.696V165.02H95.8977Z" fill="#F2F2F2"/>
<path id="Vector_4" d="M59.0504 165.02V133.8H72.698C76.0876 133.8 79.0609 134.454 81.618 135.762C84.1751 137.07 86.1672 138.884 87.5944 141.203C89.0216 143.523 89.7352 146.258 89.7352 149.41C89.7352 152.532 89.0216 155.267 87.5944 157.616C86.1672 159.935 84.1751 161.749 81.618 163.057C79.0609 164.366 76.0876 165.02 72.698 165.02H59.0504ZM64.8484 160.114H72.4304C74.7793 160.114 76.8012 159.668 78.496 158.776C80.2205 157.884 81.5437 156.635 82.4654 155.029C83.4169 153.424 83.8926 151.551 83.8926 149.41C83.8926 147.239 83.4169 145.366 82.4654 143.79C81.5437 142.185 80.2205 140.936 78.496 140.044C76.8012 139.152 74.7793 138.706 72.4304 138.706H64.8484V160.114Z" fill="#F2F2F2"/>
</g>
<path id="sete" d="M95.1095 128.002L127.333 55.7502L131.124 62.2172H86.8585L93.7715 55.1926V75.4857H80.28V49.9521H140.936V59.6527L110.608 128.002H95.1095Z" fill="#F2F2F2"/>
<g id="cem">
<path id="Vector_5" d="M147.655 177.953L151.167 170.148H152.594L156.118 177.953H154.601L151.58 170.918H152.159L149.149 177.953H147.655ZM149.272 176.147L149.662 175.01H153.877L154.267 176.147H149.272Z" fill="#F2F2F2"/>
<path id="Vector_6" d="M144.027 177.953V171.375H141.44V170.148H148.063V171.375H145.476V177.953H144.027Z" fill="#F2F2F2"/>
<path id="Vector_7" d="M136.498 177.953V170.148H137.948V176.727H142.028V177.953H136.498Z" fill="#F2F2F2"/>
<path id="Vector_8" d="M130.769 178.065C130.16 178.065 129.598 177.965 129.086 177.764C128.573 177.563 128.127 177.285 127.748 176.928C127.368 176.564 127.075 176.14 126.867 175.657C126.659 175.166 126.554 174.631 126.554 174.051C126.554 173.471 126.659 172.94 126.867 172.457C127.075 171.966 127.368 171.542 127.748 171.186C128.127 170.821 128.573 170.539 129.086 170.338C129.598 170.137 130.156 170.037 130.758 170.037C131.368 170.037 131.925 170.137 132.431 170.338C132.943 170.539 133.389 170.821 133.769 171.186C134.148 171.542 134.441 171.966 134.649 172.457C134.858 172.94 134.962 173.471 134.962 174.051C134.962 174.631 134.858 175.166 134.649 175.657C134.441 176.147 134.148 176.571 133.769 176.928C133.389 177.285 132.943 177.563 132.431 177.764C131.925 177.965 131.371 178.065 130.769 178.065ZM130.758 176.794C131.152 176.794 131.516 176.727 131.851 176.593C132.185 176.46 132.475 176.27 132.72 176.025C132.966 175.772 133.155 175.482 133.289 175.155C133.43 174.82 133.501 174.453 133.501 174.051C133.501 173.65 133.43 173.285 133.289 172.958C133.155 172.624 132.966 172.334 132.72 172.089C132.475 171.836 132.185 171.643 131.851 171.509C131.516 171.375 131.152 171.308 130.758 171.308C130.364 171.308 130 171.375 129.665 171.509C129.338 171.643 129.048 171.836 128.796 172.089C128.55 172.334 128.357 172.624 128.216 172.958C128.082 173.285 128.015 173.65 128.015 174.051C128.015 174.445 128.082 174.809 128.216 175.144C128.357 175.478 128.55 175.772 128.796 176.025C129.041 176.27 129.331 176.46 129.665 176.593C130 176.727 130.364 176.794 130.758 176.794Z" fill="#F2F2F2"/>
<path id="Vector_9" d="M121.537 177.953L118.125 170.148H119.697L122.741 177.206H121.838L124.915 170.148H126.365L122.964 177.953H121.537Z" fill="#F2F2F2"/>
<path id="Vector_10" d="M110.015 173.393H113.896V174.586H110.015V173.393ZM110.127 176.738H114.531V177.953H108.677V170.148H114.375V171.364H110.127V176.738Z" fill="#F2F2F2"/>
<path id="Vector_11" d="M99.4656 177.953V170.148H102.877C103.725 170.148 104.468 170.312 105.108 170.639C105.747 170.966 106.245 171.42 106.602 171.999C106.958 172.579 107.137 173.263 107.137 174.051C107.137 174.831 106.958 175.515 106.602 176.103C106.245 176.682 105.747 177.136 105.108 177.463C104.468 177.79 103.725 177.953 102.877 177.953H99.4656ZM100.915 176.727H102.811C103.398 176.727 103.903 176.615 104.327 176.392C104.758 176.169 105.089 175.857 105.319 175.456C105.557 175.054 105.676 174.586 105.676 174.051C105.676 173.508 105.557 173.04 105.319 172.646C105.089 172.245 104.758 171.932 104.327 171.709C103.903 171.486 103.398 171.375 102.811 171.375H100.915V176.727Z" fill="#F2F2F2"/>
<path id="Vector_12" d="M87.3264 177.954L92.6561 170.149H93.7488L88.4191 177.954H87.3264ZM87.9731 174.353C87.6089 174.353 87.2855 174.264 87.0031 174.085C86.7206 173.907 86.5013 173.658 86.3452 173.338C86.1891 173.019 86.1111 172.643 86.1111 172.212C86.1111 171.781 86.1891 171.406 86.3452 171.086C86.5013 170.766 86.7206 170.517 87.0031 170.339C87.2855 170.16 87.6089 170.071 87.9731 170.071C88.3522 170.071 88.6793 170.16 88.9543 170.339C89.2368 170.517 89.4561 170.766 89.6122 171.086C89.7683 171.406 89.8463 171.781 89.8463 172.212C89.8463 172.643 89.7683 173.019 89.6122 173.338C89.4561 173.658 89.2368 173.907 88.9543 174.085C88.6793 174.264 88.3522 174.353 87.9731 174.353ZM87.9843 173.572C88.2816 173.572 88.512 173.457 88.6756 173.227C88.8465 172.989 88.932 172.651 88.932 172.212C88.932 171.774 88.8465 171.439 88.6756 171.209C88.512 170.971 88.2816 170.852 87.9843 170.852C87.6869 170.852 87.4491 170.971 87.2707 171.209C87.0997 171.446 87.0142 171.781 87.0142 172.212C87.0142 172.643 87.0997 172.978 87.2707 173.216C87.4491 173.453 87.6869 173.572 87.9843 173.572ZM93.091 178.032C92.7267 178.032 92.4034 177.943 92.1209 177.765C91.8384 177.586 91.6192 177.337 91.4631 177.018C91.307 176.698 91.2289 176.323 91.2289 175.892C91.2289 175.46 91.307 175.085 91.4631 174.765C91.6192 174.446 91.8384 174.197 92.1209 174.018C92.4034 173.84 92.7267 173.751 93.091 173.751C93.4701 173.751 93.7971 173.84 94.0722 174.018C94.3546 174.197 94.5739 174.446 94.73 174.765C94.8861 175.085 94.9642 175.46 94.9642 175.892C94.9642 176.323 94.8861 176.698 94.73 177.018C94.5739 177.337 94.3546 177.586 94.0722 177.765C93.7971 177.943 93.4701 178.032 93.091 178.032ZM93.091 177.252C93.3883 177.252 93.6224 177.133 93.7934 176.895C93.9644 176.657 94.0499 176.323 94.0499 175.892C94.0499 175.46 93.9644 175.126 93.7934 174.888C93.6224 174.65 93.3883 174.531 93.091 174.531C92.8011 174.531 92.5669 174.65 92.3885 174.888C92.2175 175.119 92.1321 175.453 92.1321 175.892C92.1321 176.33 92.2175 176.668 92.3885 176.906C92.5669 177.137 92.8011 177.252 93.091 177.252Z" fill="#F2F2F2"/>
<path id="Vector_13" d="M81.9872 178.065C81.3702 178.065 80.8127 177.909 80.3147 177.597C79.8241 177.285 79.4376 176.831 79.1551 176.237C78.8726 175.634 78.7314 174.906 78.7314 174.051C78.7314 173.196 78.8726 172.472 79.1551 171.877C79.4376 171.275 79.8241 170.818 80.3147 170.505C80.8127 170.193 81.3702 170.037 81.9872 170.037C82.6116 170.037 83.1691 170.193 83.6597 170.505C84.1503 170.818 84.5368 171.275 84.8193 171.877C85.1092 172.472 85.2541 173.196 85.2541 174.051C85.2541 174.906 85.1092 175.634 84.8193 176.237C84.5368 176.831 84.1503 177.285 83.6597 177.597C83.1691 177.909 82.6116 178.065 81.9872 178.065ZM81.9872 176.805C82.3514 176.805 82.6673 176.709 82.9349 176.515C83.2025 176.315 83.4107 176.01 83.5593 175.601C83.7154 175.192 83.7935 174.676 83.7935 174.051C83.7935 173.419 83.7154 172.903 83.5593 172.501C83.4107 172.092 83.2025 171.791 82.9349 171.598C82.6673 171.397 82.3514 171.297 81.9872 171.297C81.6378 171.297 81.3256 171.397 81.0506 171.598C80.783 171.791 80.5711 172.092 80.415 172.501C80.2664 172.903 80.192 173.419 80.192 174.051C80.192 174.676 80.2664 175.192 80.415 175.601C80.5711 176.01 80.783 176.315 81.0506 176.515C81.3256 176.709 81.6378 176.805 81.9872 176.805Z" fill="#F2F2F2"/>
<path id="Vector_14" d="M74.4849 178.065C73.8679 178.065 73.3104 177.909 72.8124 177.597C72.3218 177.285 71.9353 176.831 71.6528 176.237C71.3703 175.634 71.2291 174.906 71.2291 174.051C71.2291 173.196 71.3703 172.472 71.6528 171.877C71.9353 171.275 72.3218 170.818 72.8124 170.505C73.3104 170.193 73.8679 170.037 74.4849 170.037C75.1093 170.037 75.6668 170.193 76.1574 170.505C76.648 170.818 77.0345 171.275 77.317 171.877C77.6069 172.472 77.7518 173.196 77.7518 174.051C77.7518 174.906 77.6069 175.634 77.317 176.237C77.0345 176.831 76.648 177.285 76.1574 177.597C75.6668 177.909 75.1093 178.065 74.4849 178.065ZM74.4849 176.805C74.8491 176.805 75.165 176.709 75.4326 176.515C75.7002 176.315 75.9084 176.01 76.057 175.601C76.2131 175.192 76.2912 174.676 76.2912 174.051C76.2912 173.419 76.2131 172.903 76.057 172.501C75.9084 172.092 75.7002 171.791 75.4326 171.598C75.165 171.397 74.8491 171.297 74.4849 171.297C74.1355 171.297 73.8233 171.397 73.5483 171.598C73.2807 171.791 73.0688 172.092 72.9127 172.501C72.7641 172.903 72.6897 173.419 72.6897 174.051C72.6897 174.676 72.7641 175.192 72.9127 175.601C73.0688 176.01 73.2807 176.315 73.5483 176.515C73.8233 176.709 74.1355 176.805 74.4849 176.805Z" fill="#F2F2F2"/>
<path id="Vector_15" d="M68.2313 177.953V170.706L68.8669 171.364H66.5811V170.148H69.6808V177.953H68.2313Z" fill="#F2F2F2"/>
</g>
</g>
</g>
</svg>
