<svg width="400" height="400" viewBox="0 0 400 400" fill="none" xmlns="http://www.w3.org/2000/svg">
<path d="M196.995 1.25053C194.57 2.97045 194.413 3.28317 181.664 36.1181C174.546 54.3337 170.244 66.6077 170.244 68.3276C170.244 70.2821 170.869 71.8456 172.512 73.6437L174.78 76.2236H199.967H225.153L227.422 73.6437C229.064 71.8456 229.69 70.2821 229.69 68.3276C229.69 65.9041 209.118 11.101 205.755 4.53402C204.504 2.18867 201.766 -0.000327334 199.967 -0.000327334C199.263 -0.000327334 197.933 0.546922 196.995 1.25053Z" fill="#F8843B"/>
<path d="M58.8599 58.7121C57.4519 59.8066 56.8262 61.0574 56.8262 62.6992C56.8262 64.0282 62.3015 77.4749 69.4194 93.6578C85.0632 129.229 84.4375 127.978 87.7227 129.542C92.8069 131.965 94.6059 130.793 112.909 112.421C123.391 101.867 129.648 94.9869 129.961 93.5797C130.665 90.7652 129.883 87.7945 127.771 85.6836C125.659 83.5728 65.5085 57.0703 62.849 57.0703C61.8322 57.0703 60.0331 57.774 58.8599 58.7121Z" fill="#F8843B"/>
<path d="M303.998 70.7516C285.93 78.7258 272.554 85.0582 271.694 86.0745C269.895 88.2635 269.269 90.9216 269.973 93.5797C270.286 94.9869 276.543 101.867 287.025 112.421C305.328 130.793 307.127 131.965 312.211 129.542C315.496 127.978 314.871 129.229 330.514 93.6578C337.632 77.4749 343.108 64.0282 343.108 62.6992C343.108 59.8848 340.057 57.0703 336.928 57.0703C335.833 57.0703 320.972 63.2464 303.998 70.7516Z" fill="#F8843B"/>
<path d="M185.105 98.8959C163.126 102.179 143.415 112.108 127.693 127.9C91.6336 163.862 87.4098 220.072 117.681 260.882C151.549 306.46 215.298 316.076 260.743 282.381C306.345 248.529 315.966 184.814 282.253 139.392C259.648 108.981 222.259 93.3453 185.105 98.8959Z" fill="#F8843B"/>
<path d="M35.003 182.156C18.577 188.567 4.18472 194.352 3.16787 195.055C-1.05596 197.792 -1.05596 202.482 3.16787 205.219C7.0006 207.72 65.2737 229.845 68.0896 229.845C70.0451 229.845 71.6095 229.219 73.4085 227.578L75.9897 225.31V200.137V174.963L73.4085 172.696C71.5313 171.055 70.1233 170.429 67.9332 170.429C66.0559 170.429 54.1666 174.651 35.003 182.156Z" fill="#F8843B"/>
<path d="M326.525 172.696L323.944 174.963V200.137V225.31L326.525 227.578C328.324 229.219 329.888 229.845 331.844 229.845C334.66 229.845 392.933 207.72 396.766 205.219C397.861 204.515 399.112 203.108 399.582 202.013C400.677 199.668 399.582 196.853 396.766 195.055C392.933 192.554 334.66 170.429 331.844 170.429C329.888 170.429 328.324 171.055 326.525 172.696Z" fill="#F8843B"/>
<path d="M87.1751 270.967C84.4375 272.374 84.6721 271.983 69.4194 306.616C62.3015 322.799 56.8262 336.246 56.8262 337.575C56.8262 340.389 59.8767 343.204 62.849 343.204C65.5085 343.204 125.659 316.701 127.771 314.59C129.883 312.479 130.665 309.509 129.961 306.616C129.335 303.958 98.1258 272.296 94.6059 270.81C91.399 269.403 89.8346 269.481 87.1751 270.967Z" fill="#F8843B"/>
<path d="M305.171 270.81C301.73 272.374 270.599 304.036 269.973 306.616C269.269 309.509 270.051 312.479 272.163 314.59C274.275 316.701 334.425 343.204 337.085 343.204C340.057 343.204 343.108 340.389 343.108 337.575C343.108 335.698 321.676 285.508 316.435 275.032C314.949 272.061 311.507 269.716 308.926 269.716C308.144 269.794 306.501 270.263 305.171 270.81Z" fill="#F8843B"/>
<path d="M175.25 324.441C172.59 325.535 170.244 329.053 170.244 332.024C170.244 334.76 192.38 393.081 194.883 396.834C197.62 401.055 202.313 401.055 205.051 396.834C207.554 393.003 229.69 334.76 229.69 331.946C229.69 329.991 229.064 328.428 227.422 326.63L225.153 324.05L200.984 323.893C187.765 323.815 176.11 324.05 175.25 324.441Z" fill="#F8843B"/>
</svg>
